<svg width="25" height="25" viewBox="0 0 25 25" fill="none" xmlns="http://www.w3.org/2000/svg">
<mask id="mask0_3135_8114" style="mask-type:alpha" maskUnits="userSpaceOnUse" x="0" y="0" width="25" height="25">
<rect x="0.437988" y="0.265137" width="24" height="24" fill="#D9D9D9"/>
</mask>
<g mask="url(#mask0_3135_8114)">
<path d="M15.438 20.2651C13.2047 20.2651 11.313 19.4901 9.76299 17.9401C8.21299 16.3901 7.43799 14.4985 7.43799 12.2651C7.43799 10.0318 8.21299 8.14014 9.76299 6.59014C11.313 5.04014 13.2047 4.26514 15.438 4.26514C17.6713 4.26514 19.563 5.04014 21.113 6.59014C22.663 8.14014 23.438 10.0318 23.438 12.2651C23.438 14.4985 22.663 16.3901 21.113 17.9401C19.563 19.4901 17.6713 20.2651 15.438 20.2651ZM7.43799 20.0151C5.67132 19.5485 4.22966 18.5985 3.11299 17.1651C1.99632 15.7318 1.43799 14.0985 1.43799 12.2651C1.43799 10.4318 1.99632 8.79847 3.11299 7.36514C4.22966 5.9318 5.67132 4.9818 7.43799 4.51514V6.61514C6.23799 7.0318 5.27132 7.7568 4.53799 8.79014C3.80466 9.82347 3.43799 10.9818 3.43799 12.2651C3.43799 13.5485 3.80466 14.7068 4.53799 15.7401C5.27132 16.7735 6.23799 17.4985 7.43799 17.9151V20.0151ZM15.438 18.2651C17.1047 18.2651 18.5213 17.6818 19.688 16.5151C20.8547 15.3485 21.438 13.9318 21.438 12.2651C21.438 10.5985 20.8547 9.1818 19.688 8.01514C18.5213 6.84847 17.1047 6.26514 15.438 6.26514C13.7713 6.26514 12.3547 6.84847 11.188 8.01514C10.0213 9.1818 9.43799 10.5985 9.43799 12.2651C9.43799 13.9318 10.0213 15.3485 11.188 16.5151C12.3547 17.6818 13.7713 18.2651 15.438 18.2651Z" fill="#1C5748"/>
</g>
</svg>
