<svg width="25" height="25" viewBox="0 0 25 25" fill="none" xmlns="http://www.w3.org/2000/svg">
<mask id="mask0_3135_8121" style="mask-type:alpha" maskUnits="userSpaceOnUse" x="0" y="0" width="25" height="25">
<rect x="0.341309" y="0.765137" width="24" height="24" fill="#D9D9D9"/>
</mask>
<g mask="url(#mask0_3135_8121)">
<path d="M6.34131 20.5151C4.60798 20.0651 3.17464 19.1318 2.04131 17.7151C0.907975 16.2985 0.341309 14.6485 0.341309 12.7651C0.341309 10.8818 0.907975 9.2318 2.04131 7.81514C3.17464 6.39847 4.60798 5.46514 6.34131 5.01514V7.11514C5.15798 7.51514 4.19548 8.2318 3.45381 9.26514C2.71214 10.2985 2.34131 11.4651 2.34131 12.7651C2.34131 14.0651 2.71214 15.2318 3.45381 16.2651C4.19548 17.2985 5.15798 18.0151 6.34131 18.4151V20.5151ZM14.3413 20.7651C12.1246 20.7651 10.2371 19.986 8.67881 18.4276C7.12048 16.8693 6.34131 14.9818 6.34131 12.7651C6.34131 10.5485 7.12048 8.66097 8.67881 7.10264C10.2371 5.5443 12.1246 4.76514 14.3413 4.76514C15.4413 4.76514 16.4746 4.97347 17.4413 5.39014C18.408 5.8068 19.258 6.3818 19.9913 7.11514L18.5913 8.51514C18.0413 7.96514 17.4038 7.53597 16.6788 7.22764C15.9538 6.9193 15.1746 6.76514 14.3413 6.76514C12.6746 6.76514 11.258 7.34847 10.0913 8.51514C8.92464 9.6818 8.34131 11.0985 8.34131 12.7651C8.34131 14.4318 8.92464 15.8485 10.0913 17.0151C11.258 18.1818 12.6746 18.7651 14.3413 18.7651C15.1746 18.7651 15.9538 18.611 16.6788 18.3026C17.4038 17.9943 18.0413 17.5651 18.5913 17.0151L19.9913 18.4151C19.258 19.1485 18.408 19.7235 17.4413 20.1401C16.4746 20.5568 15.4413 20.7651 14.3413 20.7651ZM20.3413 16.7651L18.9413 15.3651L20.5413 13.7651H13.3413V11.7651H20.5413L18.9413 10.1651L20.3413 8.76514L24.3413 12.7651L20.3413 16.7651Z" fill="#1C5748"/>
</g>
</svg>
